G04 Layer_Physical_Order=1*
G04 Layer_Color=255*
%FSLAX25Y25*%
%MOIN*%
G70*
G01*
G75*
%ADD10C,0.01968*%
%ADD11C,0.05900*%
%ADD12R,0.05900X0.05900*%
%ADD13C,0.06600*%
%ADD14R,0.06600X0.06600*%
%ADD15C,0.04724*%
%ADD16R,0.04724X0.04724*%
%ADD17R,0.04724X0.04724*%
%ADD18C,0.05905*%
%ADD19R,0.05905X0.05905*%
%ADD20R,0.05905X0.05905*%
%ADD21C,0.07323*%
%ADD22R,0.07323X0.07323*%
%ADD23C,0.05512*%
%ADD24C,0.02362*%
D10*
X279528Y57244D02*
X325116Y102832D01*
X216535Y317402D02*
X221650Y312287D01*
X336221Y102825D02*
Y125591D01*
X335950Y102554D02*
X336221Y102825D01*
X335950Y102554D02*
X350394Y88110D01*
X216535Y327402D02*
X225850Y318087D01*
X186535Y337402D02*
Y347402D01*
X216535Y337402D02*
Y347402D01*
Y287402D02*
Y297402D01*
X202520Y273386D02*
X216535Y287402D01*
X320394Y88110D02*
X327872Y95588D01*
X155158Y338779D02*
X186535Y307402D01*
X217750Y266250D02*
X221650Y270150D01*
X217750Y253431D02*
Y266250D01*
Y253431D02*
X222520Y248661D01*
X325116Y102832D02*
Y120684D01*
X327872Y95588D02*
Y130357D01*
X29488Y401575D02*
Y456693D01*
X350433Y212598D02*
Y232283D01*
Y137795D02*
Y157480D01*
X320433Y409449D02*
Y429134D01*
Y484252D02*
Y503937D01*
X320433Y157480D02*
Y171250D01*
X320433Y171250D02*
X320433Y171250D01*
X320433Y171250D02*
Y185039D01*
Y198750D01*
X320433Y198750D01*
Y212598D01*
X350433Y429134D02*
Y456693D01*
Y484252D01*
X320433Y232283D02*
Y246050D01*
X320433Y246050D02*
X320433Y246050D01*
X320433Y246050D02*
Y259842D01*
X350433Y381890D02*
Y409449D01*
X155158Y401575D02*
Y429050D01*
X155157Y429050D02*
X155158Y429050D01*
X155157Y429050D02*
Y456693D01*
X244055Y381890D02*
Y401575D01*
X345850Y189623D02*
X350433Y185039D01*
X345850Y189623D02*
Y255259D01*
X350433Y259842D01*
X221650Y270150D02*
Y312287D01*
X199606Y587638D02*
X220906Y566339D01*
Y503937D02*
Y566339D01*
X155158Y338779D02*
Y401575D01*
X350433Y177733D02*
Y185039D01*
X315850Y143150D02*
X350433Y177733D01*
X315850Y129950D02*
Y143150D01*
Y129950D02*
X325116Y120684D01*
X202520Y258661D02*
Y273386D01*
X42913Y561457D02*
X61024Y579567D01*
Y590551D01*
X218071Y59055D02*
X232126Y45000D01*
Y39370D02*
Y45000D01*
X135079Y55320D02*
Y59055D01*
Y55320D02*
X137150Y53250D01*
X138640D01*
X152520Y39370D01*
X54250Y300273D02*
X59055Y305079D01*
X54250Y198979D02*
Y300273D01*
Y198979D02*
X59055Y194173D01*
X39370Y182529D02*
Y314803D01*
Y182529D02*
X52750Y169150D01*
X62250D01*
X64250Y167150D01*
Y159368D02*
Y167150D01*
X59055Y154173D02*
X64250Y159368D01*
X351850Y331250D02*
X355050Y334450D01*
Y499320D01*
X350433Y503937D02*
X355050Y499320D01*
X182520Y39370D02*
X191940Y29950D01*
X251150D01*
X274650Y53450D01*
Y225902D01*
X269843Y230709D02*
X274650Y225902D01*
X259843Y230709D02*
X264650Y225902D01*
Y186933D02*
Y225902D01*
X263150Y185433D02*
X264650Y186933D01*
X257150Y185433D02*
X263150D01*
X253650Y181933D02*
X257150Y185433D01*
X253650Y82050D02*
Y181933D01*
X236950Y65350D02*
X253650Y82050D01*
X236950Y37150D02*
Y65350D01*
X234350Y34550D02*
X236950Y37150D01*
X217050Y34550D02*
X234350D01*
X203850Y47750D02*
X217050Y34550D01*
X180899Y47750D02*
X203850D01*
X172520Y39370D02*
X180899Y47750D01*
X59055Y204173D02*
X63850Y199379D01*
Y188968D02*
Y199379D01*
X59055Y184173D02*
X63850Y188968D01*
X29488Y401575D02*
X44150Y386913D01*
Y189079D02*
Y386913D01*
Y189079D02*
X59055Y174173D01*
Y224173D02*
X84250Y249368D01*
Y415785D01*
X125157Y456693D01*
X320433Y137795D02*
X327872Y130357D01*
X105079Y48307D02*
X114016Y39370D01*
X105079Y48307D02*
Y59055D01*
X142750Y178891D02*
X212520Y248661D01*
X142750Y96726D02*
Y178891D01*
X105079Y59055D02*
X142750Y96726D01*
X190906Y503937D02*
X199606Y512638D01*
Y531496D01*
X248071Y59055D02*
X265050Y76034D01*
Y175916D01*
X269843Y180709D01*
X209606Y510106D02*
Y531496D01*
X167650Y468150D02*
X209606Y510106D01*
X159250Y468150D02*
X167650D01*
X93550Y402450D02*
X159250Y468150D01*
X93550Y165950D02*
Y402450D01*
X63850Y136250D02*
X93550Y165950D01*
X59150Y136250D02*
X63850D01*
X54250Y141150D02*
X59150Y136250D01*
X54250Y141150D02*
Y159368D01*
X59055Y164173D01*
X320433Y456693D02*
X325050Y452076D01*
Y386506D02*
Y452076D01*
X320433Y381890D02*
X325050Y386506D01*
X320433Y348858D02*
X354331Y314961D01*
X320433Y348858D02*
Y381890D01*
Y456693D02*
X345433Y481693D01*
Y531496D01*
X350433Y259842D02*
X354331Y263740D01*
Y314961D01*
X279528Y39370D02*
Y57244D01*
X59488Y401575D02*
Y437611D01*
X35150Y461950D02*
X59488Y437611D01*
X27150Y461950D02*
X35150D01*
X24950Y459750D02*
X27150Y461950D01*
X24950Y329224D02*
Y459750D01*
Y329224D02*
X39370Y314803D01*
X59055Y214173D02*
X66650Y206579D01*
Y161768D02*
Y206579D01*
X292250Y488313D02*
X335433Y531496D01*
X292250Y311250D02*
Y488313D01*
X255351Y190709D02*
X259843D01*
X249350Y184707D02*
X255351Y190709D01*
X249350Y109650D02*
Y184707D01*
X213450Y73750D02*
X249350Y109650D01*
X213450Y48046D02*
Y73750D01*
Y48046D02*
X222126Y39370D01*
X211150Y352950D02*
X225430D01*
X206350Y348150D02*
X211150Y352950D01*
X206350Y337216D02*
Y348150D01*
X186535Y317402D02*
X206350Y337216D01*
X222520Y258661D02*
X230150Y266291D01*
Y357669D01*
X227550Y223002D02*
X259843Y190709D01*
X227550Y223002D02*
Y253631D01*
X222520Y258661D02*
X227550Y253631D01*
X274055Y401575D02*
Y552677D01*
X259055Y567677D02*
X274055Y552677D01*
X71024Y555118D02*
X76850Y549292D01*
Y395050D02*
Y549292D01*
X225850Y268050D02*
Y318087D01*
X244055Y401575D02*
X259055Y416575D01*
Y441693D01*
X64250Y159368D02*
X66650Y161768D01*
X225430Y352950D02*
X230150Y357669D01*
X274055Y401575D01*
D11*
X320394Y88110D02*
D03*
Y98110D02*
D03*
Y108110D02*
D03*
Y118110D02*
D03*
X350394D02*
D03*
Y108110D02*
D03*
Y98110D02*
D03*
D12*
Y88110D02*
D03*
D13*
X216535Y347165D02*
D03*
Y337165D02*
D03*
Y327165D02*
D03*
Y317165D02*
D03*
Y307165D02*
D03*
Y297165D02*
D03*
Y287165D02*
D03*
X186535D02*
D03*
Y297165D02*
D03*
Y307165D02*
D03*
Y317165D02*
D03*
Y327165D02*
D03*
Y337165D02*
D03*
D14*
Y347165D02*
D03*
D15*
X140157Y567677D02*
D03*
X259055Y597677D02*
D03*
Y471693D02*
D03*
X320433Y456693D02*
D03*
X350433D02*
D03*
X320433Y381890D02*
D03*
X350433D02*
D03*
X125157Y456693D02*
D03*
X350433Y185039D02*
D03*
X320433D02*
D03*
X350433Y259842D02*
D03*
X320433D02*
D03*
X29488Y456693D02*
D03*
D16*
X140157Y597677D02*
D03*
X259055Y567677D02*
D03*
Y441693D02*
D03*
D17*
X155157Y456693D02*
D03*
X59488D02*
D03*
D18*
X354331Y324961D02*
D03*
X39370Y314803D02*
D03*
X209606Y531496D02*
D03*
X114016Y39370D02*
D03*
X59055Y214173D02*
D03*
Y144173D02*
D03*
Y154173D02*
D03*
Y164173D02*
D03*
Y174173D02*
D03*
Y184173D02*
D03*
Y194173D02*
D03*
Y204173D02*
D03*
X71024Y590551D02*
D03*
X182520Y39370D02*
D03*
X172520D02*
D03*
X162520D02*
D03*
X152520D02*
D03*
X269528D02*
D03*
X222126D02*
D03*
X232126D02*
D03*
X325433Y531496D02*
D03*
X335433D02*
D03*
X71024Y555118D02*
D03*
X71024Y531496D02*
D03*
X259843Y230709D02*
D03*
X269843D02*
D03*
X259843Y220709D02*
D03*
X269843D02*
D03*
X259843Y210709D02*
D03*
X269843D02*
D03*
X259843Y200709D02*
D03*
X269843D02*
D03*
X259843Y190709D02*
D03*
X269843D02*
D03*
X259843Y180709D02*
D03*
X269843D02*
D03*
X259843Y170709D02*
D03*
X269843D02*
D03*
X259843Y160709D02*
D03*
X269843D02*
D03*
X259843Y150709D02*
D03*
X269843D02*
D03*
X259843Y140709D02*
D03*
X152520Y248661D02*
D03*
Y258661D02*
D03*
X162520Y248661D02*
D03*
Y258661D02*
D03*
X172520Y248661D02*
D03*
Y258661D02*
D03*
X182520Y248661D02*
D03*
Y258661D02*
D03*
X192520Y248661D02*
D03*
Y258661D02*
D03*
X202520Y248661D02*
D03*
Y258661D02*
D03*
X212520Y248661D02*
D03*
Y258661D02*
D03*
X222520Y248661D02*
D03*
Y258661D02*
D03*
X232520Y248661D02*
D03*
Y258661D02*
D03*
X242520Y248661D02*
D03*
X134252Y140079D02*
D03*
X124252D02*
D03*
X134252Y150079D02*
D03*
X124252D02*
D03*
X134252Y160079D02*
D03*
X124252D02*
D03*
X134252Y170079D02*
D03*
X124252D02*
D03*
X134252Y180079D02*
D03*
X124252D02*
D03*
X134252Y190079D02*
D03*
X124252D02*
D03*
X134252Y200079D02*
D03*
X124252D02*
D03*
X134252Y210079D02*
D03*
X124252D02*
D03*
X134252Y220079D02*
D03*
X124252D02*
D03*
X134252Y230079D02*
D03*
X242520Y123386D02*
D03*
Y113386D02*
D03*
X232520Y123386D02*
D03*
Y113386D02*
D03*
X222520Y123386D02*
D03*
Y113386D02*
D03*
X212520Y123386D02*
D03*
Y113386D02*
D03*
X202520Y123386D02*
D03*
Y113386D02*
D03*
X192520Y123386D02*
D03*
Y113386D02*
D03*
X182520Y123386D02*
D03*
Y113386D02*
D03*
X172520Y123386D02*
D03*
Y113386D02*
D03*
X162520Y123386D02*
D03*
Y113386D02*
D03*
X152520Y123386D02*
D03*
D19*
X354331Y314961D02*
D03*
X39370Y324803D02*
D03*
X59055Y224173D02*
D03*
X269843Y140709D02*
D03*
X124252Y230079D02*
D03*
D20*
X199606Y531496D02*
D03*
X124016Y39370D02*
D03*
X61024Y590551D02*
D03*
X192520Y39370D02*
D03*
X279528D02*
D03*
X242126D02*
D03*
X345433Y531496D02*
D03*
X61024Y555118D02*
D03*
X61024Y531496D02*
D03*
X242520Y258661D02*
D03*
X152520Y113386D02*
D03*
D21*
X199606Y577638D02*
D03*
Y587638D02*
D03*
D22*
Y597638D02*
D03*
D23*
X59055Y305079D02*
D03*
Y335079D02*
D03*
X220906Y503937D02*
D03*
X190906D02*
D03*
X135079Y59055D02*
D03*
X105079D02*
D03*
X218071D02*
D03*
X248071D02*
D03*
X244055Y401575D02*
D03*
X274055D02*
D03*
Y381890D02*
D03*
X244055D02*
D03*
X350433Y503937D02*
D03*
X320433D02*
D03*
Y484252D02*
D03*
X350433D02*
D03*
Y429134D02*
D03*
X320433D02*
D03*
Y409449D02*
D03*
X350433D02*
D03*
X42913Y561457D02*
D03*
Y531457D02*
D03*
X125158Y401575D02*
D03*
X155158D02*
D03*
X320433Y137795D02*
D03*
X350433D02*
D03*
Y157480D02*
D03*
X320433D02*
D03*
Y212598D02*
D03*
X350433D02*
D03*
Y232283D02*
D03*
X320433D02*
D03*
X59488Y401575D02*
D03*
X29488D02*
D03*
D24*
X336221Y125591D02*
D03*
X351850Y331250D02*
D03*
X292250Y311250D02*
D03*
X76850Y395050D02*
D03*
X225850Y268050D02*
D03*
M02*
