G04 Layer_Color=65535*
%FSLAX25Y25*%
%MOIN*%
G70*
G01*
G75*
%ADD25C,0.00010*%
%ADD26C,0.00000*%
%ADD27C,0.00787*%
%ADD28C,0.00600*%
%ADD29C,0.01000*%
%ADD30C,0.00591*%
%ADD31C,0.00800*%
D25*
X336694Y83810D02*
G03*
X334094Y83810I-1300J0D01*
G01*
D26*
X200335Y355665D02*
G03*
X202735Y355665I1200J0D01*
G01*
D27*
X170158Y582677D02*
G03*
X170158Y582677I-30000J0D01*
G01*
X289055D02*
G03*
X289055Y582677I-30000J0D01*
G01*
Y456693D02*
G03*
X289055Y456693I-30000J0D01*
G01*
X170158D02*
G03*
X170158Y456693I-30000J0D01*
G01*
X74488D02*
G03*
X74488Y456693I-30000J0D01*
G01*
X200000Y610669D02*
G03*
X200000Y610669I-394J0D01*
G01*
X312933Y464193D02*
X357933D01*
X312933Y449193D02*
Y464193D01*
Y449193D02*
X357933D01*
Y464193D01*
X312933Y389390D02*
X357933D01*
X312933Y374390D02*
Y389390D01*
Y374390D02*
X357933D01*
Y389390D01*
X312933Y177539D02*
X357933D01*
Y192539D01*
X312933D02*
X357933D01*
X312933Y177539D02*
Y192539D01*
Y252342D02*
X357933D01*
Y267342D01*
X312933D02*
X357933D01*
X312933Y252342D02*
Y267342D01*
X349331Y309961D02*
Y329961D01*
Y309961D02*
X359331D01*
Y329961D01*
X349331D02*
X359331D01*
X44370Y309803D02*
Y329803D01*
X34370D02*
X44370D01*
X34370Y309803D02*
Y329803D01*
Y309803D02*
X44370D01*
X194606Y536496D02*
X214606D01*
X194606Y526496D02*
Y536496D01*
Y526496D02*
X214606D01*
Y536496D01*
X109016Y34370D02*
X129016D01*
Y44370D01*
X109016D02*
X129016D01*
X109016Y34370D02*
Y44370D01*
X64055Y139173D02*
Y229173D01*
X54055D02*
X64055D01*
X54055Y139173D02*
Y229173D01*
Y139173D02*
X64055D01*
X56024Y595551D02*
X76024D01*
X56024Y585551D02*
Y595551D01*
Y585551D02*
X76024D01*
Y595551D01*
X147520Y34370D02*
Y44370D01*
X197520D01*
X147520Y34370D02*
X197520D01*
Y44370D01*
X264528Y34370D02*
X284528D01*
Y44370D01*
X264528D02*
X284528D01*
X264528Y34370D02*
Y44370D01*
X247126Y34370D02*
Y44370D01*
X217126Y34370D02*
X247126D01*
X217126D02*
Y44370D01*
X247126D01*
X350433Y526496D02*
Y536496D01*
X320433Y526496D02*
X350433D01*
X320433D02*
Y536496D01*
X350433D01*
X56024Y560118D02*
X76024D01*
X56024Y550118D02*
Y560118D01*
Y550118D02*
X76024D01*
Y560118D01*
X56024Y536496D02*
X76024D01*
X56024Y526496D02*
Y536496D01*
Y526496D02*
X76024D01*
Y536496D01*
X274843Y143209D02*
Y235709D01*
X254843Y143209D02*
Y235709D01*
Y135709D02*
Y143209D01*
Y135709D02*
X274843D01*
Y143209D01*
X254843Y235709D02*
X274843D01*
X147520Y263661D02*
X240020D01*
X147520Y243661D02*
X240020D01*
X247520D01*
Y263661D01*
X240020D02*
X247520D01*
X147520Y243661D02*
Y263661D01*
X119252Y135079D02*
Y227579D01*
X139252Y135079D02*
Y227579D01*
Y235079D01*
X119252D02*
X139252D01*
X119252Y227579D02*
Y235079D01*
Y135079D02*
X139252D01*
X155020Y108386D02*
X247520D01*
X155020Y128386D02*
X247520D01*
X147520D02*
X155020D01*
X147520Y108386D02*
Y128386D01*
Y108386D02*
X155020D01*
X247520D02*
Y128386D01*
X59055Y330079D02*
Y330979D01*
Y309179D02*
Y310079D01*
Y330079D02*
X62055D01*
Y310079D02*
Y330079D01*
X56055Y310079D02*
X62055D01*
X56055D02*
Y330079D01*
X59055D01*
X195006Y503937D02*
X195906D01*
X215906D02*
X216806D01*
X195906D02*
Y506937D01*
X215906D01*
Y500937D02*
Y506937D01*
X195906Y500937D02*
X215906D01*
X195906D02*
Y503937D01*
X109179Y59055D02*
X110079D01*
X130079D02*
X130979D01*
X110079D02*
Y62055D01*
X130079D01*
Y56055D02*
Y62055D01*
X110079Y56055D02*
X130079D01*
X110079D02*
Y59055D01*
X243071D02*
X243971D01*
X222171D02*
X223071D01*
X243071Y56055D02*
Y59055D01*
X223071Y56055D02*
X243071D01*
X223071D02*
Y62055D01*
X243071D01*
Y59055D02*
Y62055D01*
X269055Y401575D02*
X269955D01*
X248155D02*
X249055D01*
X269055Y398575D02*
Y401575D01*
X249055Y398575D02*
X269055D01*
X249055D02*
Y404575D01*
X269055D01*
Y401575D02*
Y404575D01*
X248155Y381890D02*
X249055D01*
X269055D02*
X269955D01*
X249055D02*
Y384890D01*
X269055D01*
Y378890D02*
Y384890D01*
X249055Y378890D02*
X269055D01*
X249055D02*
Y381890D01*
X324533Y503937D02*
X325433D01*
X345433D02*
X346333D01*
X325433D02*
Y506937D01*
X345433D01*
Y500937D02*
Y506937D01*
X325433Y500937D02*
X345433D01*
X325433D02*
Y503937D01*
X345433Y484252D02*
X346333D01*
X324533D02*
X325433D01*
X345433Y481252D02*
Y484252D01*
X325433Y481252D02*
X345433D01*
X325433D02*
Y487252D01*
X345433D01*
Y484252D02*
Y487252D01*
X324533Y429134D02*
X325433D01*
X345433D02*
X346333D01*
X325433D02*
Y432134D01*
X345433D01*
Y426134D02*
Y432134D01*
X325433Y426134D02*
X345433D01*
X325433D02*
Y429134D01*
X345433Y409449D02*
X346333D01*
X324533D02*
X325433D01*
X345433Y406449D02*
Y409449D01*
X325433Y406449D02*
X345433D01*
X325433D02*
Y412449D01*
X345433D01*
Y409449D02*
Y412449D01*
X42913Y535557D02*
Y536457D01*
Y556457D02*
Y557357D01*
X39913Y536457D02*
X42913D01*
X39913D02*
Y556457D01*
X45913D01*
Y536457D02*
Y556457D01*
X42913Y536457D02*
X45913D01*
X150158Y401575D02*
X151058D01*
X129258D02*
X130158D01*
X150158Y398575D02*
Y401575D01*
X130158Y398575D02*
X150158D01*
X130158D02*
Y404575D01*
X150158D01*
Y401575D02*
Y404575D01*
X345433Y137795D02*
X346333D01*
X324533D02*
X325433D01*
X345433Y134795D02*
Y137795D01*
X325433Y134795D02*
X345433D01*
X325433D02*
Y140795D01*
X345433D01*
Y137795D02*
Y140795D01*
X324533Y157480D02*
X325433D01*
X345433D02*
X346333D01*
X325433D02*
Y160480D01*
X345433D01*
Y154480D02*
Y160480D01*
X325433Y154480D02*
X345433D01*
X325433D02*
Y157480D01*
X345433Y212598D02*
X346333D01*
X324533D02*
X325433D01*
X345433Y209598D02*
Y212598D01*
X325433Y209598D02*
X345433D01*
X325433D02*
Y215598D01*
X345433D01*
Y212598D02*
Y215598D01*
X324533Y232283D02*
X325433D01*
X345433D02*
X346333D01*
X325433D02*
Y235283D01*
X345433D01*
Y229283D02*
Y235283D01*
X325433Y229283D02*
X345433D01*
X325433D02*
Y232283D01*
X33588Y401575D02*
X34488D01*
X54488D02*
X55388D01*
X34488D02*
Y404575D01*
X54488D01*
Y398575D02*
Y404575D01*
X34488Y398575D02*
X54488D01*
X34488D02*
Y401575D01*
D28*
X324394Y83810D02*
X346394D01*
X324394D02*
Y122410D01*
X346394Y83810D02*
Y122410D01*
X324394Y83810D02*
X346394D01*
X324394Y122410D02*
X346394D01*
X191035Y355665D02*
X200335D01*
X212035Y278665D02*
Y355665D01*
X191035Y278665D02*
Y355665D01*
X200335D02*
X202735D01*
X212035D01*
X191035Y278665D02*
X212035D01*
X192520Y566890D02*
Y608386D01*
Y566890D02*
X211024D01*
Y608386D01*
X192520D02*
X211024D01*
D29*
X359652Y618110D02*
Y622109D01*
X361652Y624108D01*
X363651Y622109D01*
Y618110D01*
Y621109D01*
X359652D01*
X365650Y622109D02*
Y618110D01*
Y620110D01*
X366650Y621109D01*
X367650Y622109D01*
X368649D01*
X371648Y618110D02*
Y622109D01*
X372648D01*
X373648Y621109D01*
Y618110D01*
Y621109D01*
X374647Y622109D01*
X375647Y621109D01*
Y618110D01*
X378646Y622109D02*
X380645D01*
X381645Y621109D01*
Y618110D01*
X378646D01*
X377646Y619110D01*
X378646Y620110D01*
X381645D01*
X383645Y618110D02*
Y622109D01*
X386644D01*
X387643Y621109D01*
Y618110D01*
X318666Y614511D02*
Y608513D01*
Y611512D01*
X322664D01*
Y614511D01*
Y608513D01*
X325663Y612511D02*
X327663D01*
X328662Y611512D01*
Y608513D01*
X325663D01*
X324664Y609512D01*
X325663Y610512D01*
X328662D01*
X330662Y608513D02*
X333661D01*
X334660Y609512D01*
X333661Y610512D01*
X331661D01*
X330662Y611512D01*
X331661Y612511D01*
X334660D01*
X337659D02*
X339659D01*
X340658Y611512D01*
Y608513D01*
X337659D01*
X336660Y609512D01*
X337659Y610512D01*
X340658D01*
X342658Y608513D02*
Y612511D01*
X345657D01*
X346656Y611512D01*
Y608513D01*
X348656Y614511D02*
Y608513D01*
X351655D01*
X352655Y609512D01*
Y610512D01*
Y611512D01*
X351655Y612511D01*
X348656D01*
X357653Y608513D02*
X355654D01*
X354654Y609512D01*
Y611512D01*
X355654Y612511D01*
X357653D01*
X358653Y611512D01*
Y610512D01*
X354654D01*
X362651Y606513D02*
X363651D01*
X364651Y607513D01*
Y612511D01*
X361652D01*
X360652Y611512D01*
Y609512D01*
X361652Y608513D01*
X364651D01*
X367650D02*
X369649D01*
X370649Y609512D01*
Y611512D01*
X369649Y612511D01*
X367650D01*
X366650Y611512D01*
Y609512D01*
X367650Y608513D01*
X372648Y612511D02*
X374647Y608513D01*
X376647Y612511D01*
X378646Y608513D02*
X380645D01*
X379646D01*
Y612511D01*
X378646D01*
X387643D02*
X384644D01*
X383645Y611512D01*
Y609512D01*
X384644Y608513D01*
X387643D01*
X325663Y601914D02*
X324664Y602914D01*
X322664D01*
X321665Y601914D01*
Y597915D01*
X322664Y596915D01*
X324664D01*
X325663Y597915D01*
Y599915D01*
X323664D01*
X327663Y600914D02*
Y597915D01*
X328662Y596915D01*
X331661D01*
Y600914D01*
X333661Y596915D02*
X335660D01*
X334660D01*
Y600914D01*
X333661D01*
X339659Y601914D02*
Y600914D01*
X338659D01*
X340658D01*
X339659D01*
Y597915D01*
X340658Y596915D01*
X344657Y600914D02*
X346656D01*
X347656Y599915D01*
Y596915D01*
X344657D01*
X343657Y597915D01*
X344657Y598915D01*
X347656D01*
X349656Y600914D02*
Y596915D01*
Y598915D01*
X350655Y599915D01*
X351655Y600914D01*
X352655D01*
X361652Y596915D02*
Y602914D01*
X364651D01*
X365650Y601914D01*
Y599915D01*
X364651Y598915D01*
X361652D01*
X370649Y596915D02*
X368649D01*
X367650Y597915D01*
Y599915D01*
X368649Y600914D01*
X370649D01*
X371648Y599915D01*
Y598915D01*
X367650D01*
X377646Y602914D02*
Y596915D01*
X374647D01*
X373648Y597915D01*
Y599915D01*
X374647Y600914D01*
X377646D01*
X380645D02*
X382645D01*
X383645Y599915D01*
Y596915D01*
X380645D01*
X379646Y597915D01*
X380645Y598915D01*
X383645D01*
X385644Y596915D02*
X387643D01*
X386644D01*
Y602914D01*
X385644D01*
X370649Y587318D02*
X366650D01*
X370649Y591317D01*
Y592316D01*
X369649Y593316D01*
X367650D01*
X366650Y592316D01*
X372648D02*
X373648Y593316D01*
X375647D01*
X376647Y592316D01*
Y588318D01*
X375647Y587318D01*
X373648D01*
X372648Y588318D01*
Y592316D01*
X378646Y587318D02*
X380645D01*
X379646D01*
Y593316D01*
X378646Y592316D01*
X383645Y588318D02*
X384644Y587318D01*
X386644D01*
X387643Y588318D01*
Y592316D01*
X386644Y593316D01*
X384644D01*
X383645Y592316D01*
Y591317D01*
X384644Y590317D01*
X387643D01*
X357480Y91037D02*
Y86039D01*
X358480Y85039D01*
X360479D01*
X361479Y86039D01*
Y91037D01*
X367477Y85039D02*
X363478D01*
X367477Y89038D01*
Y90038D01*
X366477Y91037D01*
X364478D01*
X363478Y90038D01*
X115416Y621927D02*
X114416Y622927D01*
X112417D01*
X111417Y621927D01*
Y617929D01*
X112417Y616929D01*
X114416D01*
X115416Y617929D01*
X117415Y616929D02*
X119415D01*
X118415D01*
Y622927D01*
X117415Y621927D01*
X233648Y621048D02*
X232649Y622048D01*
X230649D01*
X229650Y621048D01*
Y617049D01*
X230649Y616050D01*
X232649D01*
X233648Y617049D01*
X239646Y616050D02*
X235648D01*
X239646Y620048D01*
Y621048D01*
X238647Y622048D01*
X236647D01*
X235648Y621048D01*
X233648Y495048D02*
X232649Y496048D01*
X230649D01*
X229650Y495048D01*
Y491049D01*
X230649Y490050D01*
X232649D01*
X233648Y491049D01*
X235648Y495048D02*
X236647Y496048D01*
X238647D01*
X239646Y495048D01*
Y494048D01*
X238647Y493049D01*
X237647D01*
X238647D01*
X239646Y492049D01*
Y491049D01*
X238647Y490050D01*
X236647D01*
X235648Y491049D01*
X317548Y472548D02*
X316549Y473548D01*
X314549D01*
X313550Y472548D01*
Y468549D01*
X314549Y467550D01*
X316549D01*
X317548Y468549D01*
X322547Y467550D02*
Y473548D01*
X319548Y470549D01*
X323546D01*
X317548Y397748D02*
X316549Y398748D01*
X314549D01*
X313550Y397748D01*
Y393749D01*
X314549Y392750D01*
X316549D01*
X317548Y393749D01*
X323546Y398748D02*
X319548D01*
Y395749D01*
X321547Y396748D01*
X322547D01*
X323546Y395749D01*
Y393749D01*
X322547Y392750D01*
X320547D01*
X319548Y393749D01*
X114748Y495048D02*
X113749Y496048D01*
X111749D01*
X110750Y495048D01*
Y491049D01*
X111749Y490050D01*
X113749D01*
X114748Y491049D01*
X120746Y496048D02*
X118747Y495048D01*
X116748Y493049D01*
Y491049D01*
X117747Y490050D01*
X119747D01*
X120746Y491049D01*
Y492049D01*
X119747Y493049D01*
X116748D01*
X317548Y200948D02*
X316549Y201948D01*
X314549D01*
X313550Y200948D01*
Y196949D01*
X314549Y195950D01*
X316549D01*
X317548Y196949D01*
X319548Y201948D02*
X323546D01*
Y200948D01*
X319548Y196949D01*
Y195950D01*
X317548Y275748D02*
X316549Y276748D01*
X314549D01*
X313550Y275748D01*
Y271749D01*
X314549Y270750D01*
X316549D01*
X317548Y271749D01*
X319548Y275748D02*
X320547Y276748D01*
X322547D01*
X323546Y275748D01*
Y274748D01*
X322547Y273749D01*
X323546Y272749D01*
Y271749D01*
X322547Y270750D01*
X320547D01*
X319548Y271749D01*
Y272749D01*
X320547Y273749D01*
X319548Y274748D01*
Y275748D01*
X320547Y273749D02*
X322547D01*
X19048Y495048D02*
X18049Y496048D01*
X16049D01*
X15050Y495048D01*
Y491049D01*
X16049Y490050D01*
X18049D01*
X19048Y491049D01*
X21048D02*
X22047Y490050D01*
X24047D01*
X25046Y491049D01*
Y495048D01*
X24047Y496048D01*
X22047D01*
X21048Y495048D01*
Y494048D01*
X22047Y493049D01*
X25046D01*
X349950Y333350D02*
Y339348D01*
X352949D01*
X353948Y338348D01*
Y336349D01*
X352949Y335349D01*
X349950D01*
X355948Y333350D02*
X357947D01*
X356947D01*
Y339348D01*
X355948Y338348D01*
X34950Y333150D02*
Y339148D01*
X37949D01*
X38948Y338148D01*
Y336149D01*
X37949Y335149D01*
X34950D01*
X44946Y333150D02*
X40948D01*
X44946Y337148D01*
Y338148D01*
X43947Y339148D01*
X41947D01*
X40948Y338148D01*
X195250Y539850D02*
Y545848D01*
X198249D01*
X199248Y544848D01*
Y542849D01*
X198249Y541849D01*
X195250D01*
X201248Y544848D02*
X202247Y545848D01*
X204247D01*
X205246Y544848D01*
Y543848D01*
X204247Y542849D01*
X203247D01*
X204247D01*
X205246Y541849D01*
Y540849D01*
X204247Y539850D01*
X202247D01*
X201248Y540849D01*
X109650Y47750D02*
Y53748D01*
X112649D01*
X113648Y52748D01*
Y50749D01*
X112649Y49749D01*
X109650D01*
X118647Y47750D02*
Y53748D01*
X115648Y50749D01*
X119646D01*
X54650Y232550D02*
Y238548D01*
X57649D01*
X58648Y237548D01*
Y235549D01*
X57649Y234549D01*
X54650D01*
X64646Y238548D02*
X60648D01*
Y235549D01*
X62647Y236548D01*
X63647D01*
X64646Y235549D01*
Y233549D01*
X63647Y232550D01*
X61647D01*
X60648Y233549D01*
X56650Y598950D02*
Y604948D01*
X59649D01*
X60648Y603948D01*
Y601949D01*
X59649Y600949D01*
X56650D01*
X66646Y604948D02*
X64647Y603948D01*
X62648Y601949D01*
Y599949D01*
X63647Y598950D01*
X65647D01*
X66646Y599949D01*
Y600949D01*
X65647Y601949D01*
X62648D01*
X148150Y47750D02*
Y53748D01*
X151149D01*
X152148Y52748D01*
Y50749D01*
X151149Y49749D01*
X148150D01*
X154148Y53748D02*
X158146D01*
Y52748D01*
X154148Y48749D01*
Y47750D01*
X265150D02*
Y53748D01*
X268149D01*
X269148Y52748D01*
Y50749D01*
X268149Y49749D01*
X265150D01*
X271148Y52748D02*
X272147Y53748D01*
X274147D01*
X275146Y52748D01*
Y51748D01*
X274147Y50749D01*
X275146Y49749D01*
Y48749D01*
X274147Y47750D01*
X272147D01*
X271148Y48749D01*
Y49749D01*
X272147Y50749D01*
X271148Y51748D01*
Y52748D01*
X272147Y50749D02*
X274147D01*
X217750Y47750D02*
Y53748D01*
X220749D01*
X221748Y52748D01*
Y50749D01*
X220749Y49749D01*
X217750D01*
X223748Y48749D02*
X224747Y47750D01*
X226747D01*
X227746Y48749D01*
Y52748D01*
X226747Y53748D01*
X224747D01*
X223748Y52748D01*
Y51748D01*
X224747Y50749D01*
X227746D01*
X321050Y539850D02*
Y545848D01*
X324049D01*
X325048Y544848D01*
Y542849D01*
X324049Y541849D01*
X321050D01*
X327048Y539850D02*
X329047D01*
X328047D01*
Y545848D01*
X327048Y544848D01*
X332046D02*
X333046Y545848D01*
X335045D01*
X336045Y544848D01*
Y540849D01*
X335045Y539850D01*
X333046D01*
X332046Y540849D01*
Y544848D01*
X56650Y563550D02*
Y569548D01*
X59649D01*
X60648Y568548D01*
Y566549D01*
X59649Y565549D01*
X56650D01*
X62648Y563550D02*
X64647D01*
X63647D01*
Y569548D01*
X62648Y568548D01*
X67646Y563550D02*
X69645D01*
X68646D01*
Y569548D01*
X67646Y568548D01*
X56650Y539850D02*
Y545848D01*
X59649D01*
X60648Y544848D01*
Y542849D01*
X59649Y541849D01*
X56650D01*
X62648Y539850D02*
X64647D01*
X63647D01*
Y545848D01*
X62648Y544848D01*
X71645Y539850D02*
X67646D01*
X71645Y543848D01*
Y544848D01*
X70645Y545848D01*
X68646D01*
X67646Y544848D01*
X283465Y226772D02*
Y232770D01*
X286464D01*
X287463Y231770D01*
Y229771D01*
X286464Y228771D01*
X283465D01*
X289463Y226772D02*
X291462D01*
X290462D01*
Y232770D01*
X289463Y231770D01*
X294461D02*
X295461Y232770D01*
X297460D01*
X298460Y231770D01*
Y230770D01*
X297460Y229771D01*
X296460D01*
X297460D01*
X298460Y228771D01*
Y227771D01*
X297460Y226772D01*
X295461D01*
X294461Y227771D01*
X148031Y268347D02*
Y274344D01*
X151031D01*
X152030Y273345D01*
Y271345D01*
X151031Y270346D01*
X148031D01*
X154030Y268347D02*
X156029D01*
X155029D01*
Y274344D01*
X154030Y273345D01*
X162027Y268347D02*
Y274344D01*
X159028Y271345D01*
X163027D01*
X98819Y226693D02*
Y232691D01*
X101818D01*
X102818Y231691D01*
Y229692D01*
X101818Y228692D01*
X98819D01*
X104817Y226693D02*
X106816D01*
X105817D01*
Y232691D01*
X104817Y231691D01*
X113814Y232691D02*
X109815D01*
Y229692D01*
X111815Y230692D01*
X112814D01*
X113814Y229692D01*
Y227693D01*
X112814Y226693D01*
X110815D01*
X109815Y227693D01*
X148031Y99764D02*
Y105762D01*
X151031D01*
X152030Y104762D01*
Y102763D01*
X151031Y101763D01*
X148031D01*
X154030Y99764D02*
X156029D01*
X155029D01*
Y105762D01*
X154030Y104762D01*
X163027Y105762D02*
X161027Y104762D01*
X159028Y102763D01*
Y100763D01*
X160028Y99764D01*
X162027D01*
X163027Y100763D01*
Y101763D01*
X162027Y102763D01*
X159028D01*
X196448Y615449D02*
Y619448D01*
X195449Y620448D01*
X193449D01*
X192450Y619448D01*
Y615449D01*
X193449Y614450D01*
X195449D01*
X194449Y616449D02*
X196448Y614450D01*
X195449D02*
X196448Y615449D01*
X198448Y614450D02*
X200447D01*
X199447D01*
Y620448D01*
X198448Y619448D01*
X56650Y341250D02*
Y347248D01*
X59649D01*
X60648Y346248D01*
Y344249D01*
X59649Y343249D01*
X56650D01*
X58649D02*
X60648Y341250D01*
X62648D02*
X64647D01*
X63647D01*
Y347248D01*
X62648Y346248D01*
X188750Y510350D02*
Y516348D01*
X191749D01*
X192748Y515348D01*
Y513349D01*
X191749Y512349D01*
X188750D01*
X190749D02*
X192748Y510350D01*
X198746D02*
X194748D01*
X198746Y514348D01*
Y515348D01*
X197747Y516348D01*
X195747D01*
X194748Y515348D01*
X102950Y65450D02*
Y71448D01*
X105949D01*
X106948Y70448D01*
Y68449D01*
X105949Y67449D01*
X102950D01*
X104949D02*
X106948Y65450D01*
X108948Y70448D02*
X109947Y71448D01*
X111947D01*
X112946Y70448D01*
Y69448D01*
X111947Y68449D01*
X110947D01*
X111947D01*
X112946Y67449D01*
Y66449D01*
X111947Y65450D01*
X109947D01*
X108948Y66449D01*
X215950Y65450D02*
Y71448D01*
X218949D01*
X219948Y70448D01*
Y68449D01*
X218949Y67449D01*
X215950D01*
X217949D02*
X219948Y65450D01*
X224947D02*
Y71448D01*
X221948Y68449D01*
X225946D01*
X241850Y407950D02*
Y413948D01*
X244849D01*
X245848Y412948D01*
Y410949D01*
X244849Y409949D01*
X241850D01*
X243849D02*
X245848Y407950D01*
X251846Y413948D02*
X247848D01*
Y410949D01*
X249847Y411948D01*
X250847D01*
X251846Y410949D01*
Y408949D01*
X250847Y407950D01*
X248847D01*
X247848Y408949D01*
X241850Y388250D02*
Y394248D01*
X244849D01*
X245848Y393248D01*
Y391249D01*
X244849Y390249D01*
X241850D01*
X243849D02*
X245848Y388250D01*
X251846Y394248D02*
X249847Y393248D01*
X247848Y391249D01*
Y389249D01*
X248847Y388250D01*
X250847D01*
X251846Y389249D01*
Y390249D01*
X250847Y391249D01*
X247848D01*
X318250Y510350D02*
Y516348D01*
X321249D01*
X322248Y515348D01*
Y513349D01*
X321249Y512349D01*
X318250D01*
X320249D02*
X322248Y510350D01*
X324248Y516348D02*
X328246D01*
Y515348D01*
X324248Y511349D01*
Y510350D01*
X318250Y490650D02*
Y496648D01*
X321249D01*
X322248Y495648D01*
Y493649D01*
X321249Y492649D01*
X318250D01*
X320249D02*
X322248Y490650D01*
X324248Y495648D02*
X325247Y496648D01*
X327247D01*
X328246Y495648D01*
Y494648D01*
X327247Y493649D01*
X328246Y492649D01*
Y491649D01*
X327247Y490650D01*
X325247D01*
X324248Y491649D01*
Y492649D01*
X325247Y493649D01*
X324248Y494648D01*
Y495648D01*
X325247Y493649D02*
X327247D01*
X318250Y435550D02*
Y441548D01*
X321249D01*
X322248Y440548D01*
Y438549D01*
X321249Y437549D01*
X318250D01*
X320249D02*
X322248Y435550D01*
X324248Y436549D02*
X325247Y435550D01*
X327247D01*
X328246Y436549D01*
Y440548D01*
X327247Y441548D01*
X325247D01*
X324248Y440548D01*
Y439548D01*
X325247Y438549D01*
X328246D01*
X318250Y415850D02*
Y421848D01*
X321249D01*
X322248Y420848D01*
Y418849D01*
X321249Y417849D01*
X318250D01*
X320249D02*
X322248Y415850D01*
X324248D02*
X326247D01*
X325247D01*
Y421848D01*
X324248Y420848D01*
X329246D02*
X330246Y421848D01*
X332245D01*
X333245Y420848D01*
Y416849D01*
X332245Y415850D01*
X330246D01*
X329246Y416849D01*
Y420848D01*
X40548Y567571D02*
Y573569D01*
X43547D01*
X44547Y572569D01*
Y570570D01*
X43547Y569570D01*
X40548D01*
X42547D02*
X44547Y567571D01*
X46546D02*
X48545D01*
X47546D01*
Y573569D01*
X46546Y572569D01*
X51544Y567571D02*
X53544D01*
X52544D01*
Y573569D01*
X51544Y572569D01*
X123050Y407950D02*
Y413948D01*
X126049D01*
X127048Y412948D01*
Y410949D01*
X126049Y409949D01*
X123050D01*
X125049D02*
X127048Y407950D01*
X129048D02*
X131047D01*
X130047D01*
Y413948D01*
X129048Y412948D01*
X138045Y407950D02*
X134046D01*
X138045Y411948D01*
Y412948D01*
X137045Y413948D01*
X135046D01*
X134046Y412948D01*
X318250Y144150D02*
Y150148D01*
X321249D01*
X322248Y149148D01*
Y147149D01*
X321249Y146149D01*
X318250D01*
X320249D02*
X322248Y144150D01*
X324248D02*
X326247D01*
X325247D01*
Y150148D01*
X324248Y149148D01*
X329246D02*
X330246Y150148D01*
X332245D01*
X333245Y149148D01*
Y148148D01*
X332245Y147149D01*
X331245D01*
X332245D01*
X333245Y146149D01*
Y145149D01*
X332245Y144150D01*
X330246D01*
X329246Y145149D01*
X318250Y163850D02*
Y169848D01*
X321249D01*
X322248Y168848D01*
Y166849D01*
X321249Y165849D01*
X318250D01*
X320249D02*
X322248Y163850D01*
X324248D02*
X326247D01*
X325247D01*
Y169848D01*
X324248Y168848D01*
X332245Y163850D02*
Y169848D01*
X329246Y166849D01*
X333245D01*
X318250Y218950D02*
Y224948D01*
X321249D01*
X322248Y223948D01*
Y221949D01*
X321249Y220949D01*
X318250D01*
X320249D02*
X322248Y218950D01*
X324248D02*
X326247D01*
X325247D01*
Y224948D01*
X324248Y223948D01*
X333245Y224948D02*
X329246D01*
Y221949D01*
X331245Y222948D01*
X332245D01*
X333245Y221949D01*
Y219949D01*
X332245Y218950D01*
X330246D01*
X329246Y219949D01*
X318250Y238650D02*
Y244648D01*
X321249D01*
X322248Y243648D01*
Y241649D01*
X321249Y240649D01*
X318250D01*
X320249D02*
X322248Y238650D01*
X324248D02*
X326247D01*
X325247D01*
Y244648D01*
X324248Y243648D01*
X333245Y244648D02*
X331245Y243648D01*
X329246Y241649D01*
Y239649D01*
X330246Y238650D01*
X332245D01*
X333245Y239649D01*
Y240649D01*
X332245Y241649D01*
X329246D01*
X27350Y407950D02*
Y413948D01*
X30349D01*
X31348Y412948D01*
Y410949D01*
X30349Y409949D01*
X27350D01*
X29349D02*
X31348Y407950D01*
X33348D02*
X35347D01*
X34347D01*
Y413948D01*
X33348Y412948D01*
X38346Y413948D02*
X42345D01*
Y412948D01*
X38346Y408949D01*
Y407950D01*
X183846Y364982D02*
Y359984D01*
X184845Y358984D01*
X186845D01*
X187844Y359984D01*
Y364982D01*
X189844Y358984D02*
X191843D01*
X190843D01*
Y364982D01*
X189844Y363983D01*
D30*
X140106Y614692D02*
Y618628D01*
X138139Y616660D02*
X142074D01*
X259106Y550662D02*
Y546726D01*
X261074Y548694D02*
X257138D01*
X259106Y424678D02*
Y420742D01*
X261074Y422710D02*
X257138D01*
X172173Y456744D02*
X176109D01*
X174141Y458712D02*
Y454776D01*
X76503Y456744D02*
X80439D01*
X78471Y458712D02*
Y454776D01*
D31*
X261842Y132072D02*
Y128740D01*
X258510Y132072D01*
X257677D01*
X256844Y131239D01*
Y129573D01*
X257677Y128740D01*
X271843D02*
Y130406D01*
Y129573D01*
X266844D01*
X267677Y128740D01*
X271843Y238677D02*
Y240343D01*
Y239510D01*
X266844D01*
X267677Y238677D01*
X271009Y242843D02*
X271843Y243676D01*
Y245342D01*
X271009Y246175D01*
X267677D01*
X266844Y245342D01*
Y243676D01*
X267677Y242843D01*
X268510D01*
X269343Y243676D01*
Y246175D01*
X261842Y242009D02*
Y238677D01*
X258510Y242009D01*
X257677D01*
X256844Y241176D01*
Y239510D01*
X257677Y238677D01*
Y243676D02*
X256844Y244509D01*
Y246175D01*
X257677Y247008D01*
X261010D01*
X261842Y246175D01*
Y244509D01*
X261010Y243676D01*
X257677D01*
X251156Y250661D02*
X254488D01*
X251156Y247329D01*
Y246496D01*
X251989Y245663D01*
X253655D01*
X254488Y246496D01*
Y260661D02*
X252822D01*
X253655D01*
Y255663D01*
X254488Y256496D01*
X144551Y260661D02*
X142885D01*
X143718D01*
Y255663D01*
X144551Y256496D01*
X140386Y259828D02*
X139553Y260661D01*
X137887D01*
X137054Y259828D01*
Y256496D01*
X137887Y255663D01*
X139553D01*
X140386Y256496D01*
Y257329D01*
X139553Y258162D01*
X137054D01*
X141219Y250661D02*
X144551D01*
X141219Y247329D01*
Y246496D01*
X142052Y245663D01*
X143718D01*
X144551Y246496D01*
X139553D02*
X138720Y245663D01*
X137054D01*
X136221Y246496D01*
Y249828D01*
X137054Y250661D01*
X138720D01*
X139553Y249828D01*
Y246496D01*
X132252Y238715D02*
Y242047D01*
X135584Y238715D01*
X136417D01*
X137250Y239548D01*
Y241214D01*
X136417Y242047D01*
X122252D02*
Y240381D01*
Y241214D01*
X127250D01*
X126417Y242047D01*
X122252Y132110D02*
Y130444D01*
Y131277D01*
X127250D01*
X126417Y132110D01*
X123085Y127945D02*
X122252Y127112D01*
Y125446D01*
X123085Y124613D01*
X126417D01*
X127250Y125446D01*
Y127112D01*
X126417Y127945D01*
X125584D01*
X124751Y127112D01*
Y124613D01*
X132252Y128778D02*
Y132110D01*
X135584Y128778D01*
X136417D01*
X137250Y129611D01*
Y131277D01*
X136417Y132110D01*
Y127112D02*
X137250Y126279D01*
Y124613D01*
X136417Y123780D01*
X133085D01*
X132252Y124613D01*
Y126279D01*
X133085Y127112D01*
X136417D01*
X143883Y121386D02*
X140551D01*
X143883Y124718D01*
Y125551D01*
X143050Y126384D01*
X141384D01*
X140551Y125551D01*
Y111386D02*
X142217D01*
X141384D01*
Y116384D01*
X140551Y115551D01*
X250488Y111386D02*
X252154D01*
X251321D01*
Y116384D01*
X250488Y115551D01*
X254654Y112219D02*
X255487Y111386D01*
X257153D01*
X257986Y112219D01*
Y115551D01*
X257153Y116384D01*
X255487D01*
X254654Y115551D01*
Y114718D01*
X255487Y113885D01*
X257986D01*
X253820Y121386D02*
X250488D01*
X253820Y124718D01*
Y125551D01*
X252987Y126384D01*
X251321D01*
X250488Y125551D01*
X255487D02*
X256320Y126384D01*
X257986D01*
X258819Y125551D01*
Y122219D01*
X257986Y121386D01*
X256320D01*
X255487Y122219D01*
Y125551D01*
M02*
