G04 Layer_Physical_Order=2*
G04 Layer_Color=16711680*
%FSLAX25Y25*%
%MOIN*%
G70*
G01*
G75*
%ADD10C,0.01968*%
%ADD11C,0.05900*%
%ADD12R,0.05900X0.05900*%
%ADD13C,0.06600*%
%ADD14R,0.06600X0.06600*%
%ADD15C,0.04724*%
%ADD16R,0.04724X0.04724*%
%ADD17R,0.04724X0.04724*%
%ADD18C,0.05905*%
%ADD19R,0.05905X0.05905*%
%ADD20R,0.05905X0.05905*%
%ADD21C,0.07323*%
%ADD22R,0.07323X0.07323*%
%ADD23C,0.05512*%
%ADD24C,0.02362*%
D10*
X336221Y109342D02*
Y125591D01*
X334989Y108110D02*
X336221Y109342D01*
X320394Y108110D02*
X334989D01*
X186535Y287402D02*
X194087Y279850D01*
X345847Y98110D02*
X350394D01*
X302441Y118110D02*
X320394D01*
X350394Y108110D02*
X355150Y112866D01*
X216535Y347402D02*
X248650Y379516D01*
X165153Y347402D02*
X186535D01*
X147977Y297402D02*
X186535D01*
X225850Y268050D02*
X312226D01*
X320433Y259842D01*
X217378Y263850D02*
X264778Y311250D01*
X217350Y270450D02*
X271861Y324961D01*
X125332Y270450D02*
X217350D01*
X200450Y263850D02*
X217378D01*
X217050Y279850D02*
X268450Y331250D01*
X194087Y279850D02*
X217050D01*
X357950Y106150D02*
Y141950D01*
X355150Y112866D02*
Y120750D01*
X140157Y597677D02*
X169850D01*
X169889Y597638D01*
X199606D01*
X274055Y381890D02*
X320433D01*
X59488Y401575D02*
X125158D01*
X192520Y39370D02*
X222126D01*
X42913Y531457D02*
X51850D01*
X51889Y531496D01*
X61024D01*
X124016Y39370D02*
X128836Y34550D01*
X187699D01*
X192520Y39370D01*
X237346Y44150D02*
X242126Y39370D01*
X167299Y44150D02*
X237346D01*
X162520Y39370D02*
X167299Y44150D01*
X269548Y49350D02*
X279528Y39370D01*
X162499Y49350D02*
X269548D01*
X152520Y39370D02*
X162499Y49350D01*
X329420Y524950D02*
X350433Y503937D01*
X77570Y524950D02*
X329420D01*
X71024Y531496D02*
X77570Y524950D01*
X199606Y587638D02*
X249016D01*
X259055Y597677D01*
X179646Y567677D02*
X199606Y587638D01*
X140157Y567677D02*
X179646D01*
X49646Y335079D02*
X59055D01*
X39370Y324803D02*
X49646Y335079D01*
X289252Y567677D02*
X325433Y531496D01*
X259055Y567677D02*
X289252D01*
X269843Y150709D02*
X302441Y118110D01*
X344193Y375650D02*
X350433Y381890D01*
X284783Y375650D02*
X344193D01*
X216535Y307402D02*
X284783Y375650D01*
X207750Y253891D02*
X212520Y258661D01*
X207750Y203750D02*
Y253891D01*
Y203750D02*
X253450Y158050D01*
Y118950D02*
Y158050D01*
Y118950D02*
X284350Y88050D01*
Y35507D02*
Y88050D01*
X281992Y33150D02*
X284350Y35507D01*
X275748Y33150D02*
X281992D01*
X269528Y39370D02*
X275748Y33150D01*
X259843Y160709D02*
X264584Y165450D01*
X285475D01*
X298213Y152711D01*
X323188D01*
X355150Y120750D01*
X340808Y103150D02*
X345847Y98110D01*
X297402Y103150D02*
X340808D01*
X259843Y140709D02*
X297402Y103150D01*
X345650Y113366D02*
X350394Y118110D01*
X345650Y104850D02*
Y113366D01*
Y104850D02*
X347150Y103350D01*
X355150D01*
X357950Y106150D01*
X324150Y175750D02*
X357950Y141950D01*
X264884Y175750D02*
X324150D01*
X259843Y170709D02*
X264884Y175750D01*
X59055Y79544D02*
Y144173D01*
Y79544D02*
X104050Y34550D01*
X119195D01*
X124016Y39370D01*
X271861Y324961D02*
X354331D01*
X59055Y204173D02*
X125332Y270450D01*
X268450Y331250D02*
X351850D01*
X71024Y590551D02*
X78150Y597677D01*
X140157D01*
X54950Y452154D02*
X59488Y456693D01*
X54950Y399150D02*
Y452154D01*
Y399150D02*
X57150Y396950D01*
X69750D01*
X71150Y398350D01*
X118650D01*
X130450Y386550D01*
X247250D01*
X248650Y385150D01*
Y379516D02*
Y385150D01*
X125158Y401575D02*
X135283Y391450D01*
X264495D01*
X274055Y381890D01*
X259055Y471693D02*
X274055Y456693D01*
X320433D01*
X220906Y503937D02*
X253150Y471693D01*
X259055D01*
X344764Y190709D02*
X350433Y185039D01*
X269843Y190709D02*
X344764D01*
X269843D02*
X274650Y195516D01*
Y213150D01*
X272350Y215450D02*
X274650Y213150D01*
X255731Y215450D02*
X272350D01*
X222520Y248661D02*
X255731Y215450D01*
X83897Y567677D02*
X140157D01*
X61024Y590551D02*
X83897Y567677D01*
X264778Y311250D02*
X292250D01*
X197750Y261150D02*
X200450Y263850D01*
X197750Y253431D02*
Y261150D01*
Y253431D02*
X202520Y248661D01*
X290833Y28550D02*
X350394Y88110D01*
X232946Y28550D02*
X290833D01*
X222126Y39370D02*
X232946Y28550D01*
X199606Y577638D02*
X209567Y567677D01*
X259055D01*
X76850Y395050D02*
X117505D01*
X165153Y347402D01*
X42913Y402465D02*
X147977Y297402D01*
X42913Y402465D02*
Y531457D01*
X136306Y456693D02*
X155157D01*
X66250Y526750D02*
X136306Y456693D01*
X66250Y526750D02*
Y549892D01*
X61024Y555118D02*
X66250Y549892D01*
X241023Y381890D02*
X244055D01*
X186535Y327402D02*
X241023Y381890D01*
D11*
X320394Y88110D02*
D03*
Y98110D02*
D03*
Y108110D02*
D03*
Y118110D02*
D03*
X350394D02*
D03*
Y108110D02*
D03*
Y98110D02*
D03*
D12*
Y88110D02*
D03*
D13*
X216535Y347165D02*
D03*
Y337165D02*
D03*
Y327165D02*
D03*
Y317165D02*
D03*
Y307165D02*
D03*
Y297165D02*
D03*
Y287165D02*
D03*
X186535D02*
D03*
Y297165D02*
D03*
Y307165D02*
D03*
Y317165D02*
D03*
Y327165D02*
D03*
Y337165D02*
D03*
D14*
Y347165D02*
D03*
D15*
X140157Y567677D02*
D03*
X259055Y597677D02*
D03*
Y471693D02*
D03*
X320433Y456693D02*
D03*
X350433D02*
D03*
X320433Y381890D02*
D03*
X350433D02*
D03*
X125157Y456693D02*
D03*
X350433Y185039D02*
D03*
X320433D02*
D03*
X350433Y259842D02*
D03*
X320433D02*
D03*
X29488Y456693D02*
D03*
D16*
X140157Y597677D02*
D03*
X259055Y567677D02*
D03*
Y441693D02*
D03*
D17*
X155157Y456693D02*
D03*
X59488D02*
D03*
D18*
X354331Y324961D02*
D03*
X39370Y314803D02*
D03*
X209606Y531496D02*
D03*
X114016Y39370D02*
D03*
X59055Y214173D02*
D03*
Y144173D02*
D03*
Y154173D02*
D03*
Y164173D02*
D03*
Y174173D02*
D03*
Y184173D02*
D03*
Y194173D02*
D03*
Y204173D02*
D03*
X71024Y590551D02*
D03*
X182520Y39370D02*
D03*
X172520D02*
D03*
X162520D02*
D03*
X152520D02*
D03*
X269528D02*
D03*
X222126D02*
D03*
X232126D02*
D03*
X325433Y531496D02*
D03*
X335433D02*
D03*
X71024Y555118D02*
D03*
X71024Y531496D02*
D03*
X259843Y230709D02*
D03*
X269843D02*
D03*
X259843Y220709D02*
D03*
X269843D02*
D03*
X259843Y210709D02*
D03*
X269843D02*
D03*
X259843Y200709D02*
D03*
X269843D02*
D03*
X259843Y190709D02*
D03*
X269843D02*
D03*
X259843Y180709D02*
D03*
X269843D02*
D03*
X259843Y170709D02*
D03*
X269843D02*
D03*
X259843Y160709D02*
D03*
X269843D02*
D03*
X259843Y150709D02*
D03*
X269843D02*
D03*
X259843Y140709D02*
D03*
X152520Y248661D02*
D03*
Y258661D02*
D03*
X162520Y248661D02*
D03*
Y258661D02*
D03*
X172520Y248661D02*
D03*
Y258661D02*
D03*
X182520Y248661D02*
D03*
Y258661D02*
D03*
X192520Y248661D02*
D03*
Y258661D02*
D03*
X202520Y248661D02*
D03*
Y258661D02*
D03*
X212520Y248661D02*
D03*
Y258661D02*
D03*
X222520Y248661D02*
D03*
Y258661D02*
D03*
X232520Y248661D02*
D03*
Y258661D02*
D03*
X242520Y248661D02*
D03*
X134252Y140079D02*
D03*
X124252D02*
D03*
X134252Y150079D02*
D03*
X124252D02*
D03*
X134252Y160079D02*
D03*
X124252D02*
D03*
X134252Y170079D02*
D03*
X124252D02*
D03*
X134252Y180079D02*
D03*
X124252D02*
D03*
X134252Y190079D02*
D03*
X124252D02*
D03*
X134252Y200079D02*
D03*
X124252D02*
D03*
X134252Y210079D02*
D03*
X124252D02*
D03*
X134252Y220079D02*
D03*
X124252D02*
D03*
X134252Y230079D02*
D03*
X242520Y123386D02*
D03*
Y113386D02*
D03*
X232520Y123386D02*
D03*
Y113386D02*
D03*
X222520Y123386D02*
D03*
Y113386D02*
D03*
X212520Y123386D02*
D03*
Y113386D02*
D03*
X202520Y123386D02*
D03*
Y113386D02*
D03*
X192520Y123386D02*
D03*
Y113386D02*
D03*
X182520Y123386D02*
D03*
Y113386D02*
D03*
X172520Y123386D02*
D03*
Y113386D02*
D03*
X162520Y123386D02*
D03*
Y113386D02*
D03*
X152520Y123386D02*
D03*
D19*
X354331Y314961D02*
D03*
X39370Y324803D02*
D03*
X59055Y224173D02*
D03*
X269843Y140709D02*
D03*
X124252Y230079D02*
D03*
D20*
X199606Y531496D02*
D03*
X124016Y39370D02*
D03*
X61024Y590551D02*
D03*
X192520Y39370D02*
D03*
X279528D02*
D03*
X242126D02*
D03*
X345433Y531496D02*
D03*
X61024Y555118D02*
D03*
X61024Y531496D02*
D03*
X242520Y258661D02*
D03*
X152520Y113386D02*
D03*
D21*
X199606Y577638D02*
D03*
Y587638D02*
D03*
D22*
Y597638D02*
D03*
D23*
X59055Y305079D02*
D03*
Y335079D02*
D03*
X220906Y503937D02*
D03*
X190906D02*
D03*
X135079Y59055D02*
D03*
X105079D02*
D03*
X218071D02*
D03*
X248071D02*
D03*
X244055Y401575D02*
D03*
X274055D02*
D03*
Y381890D02*
D03*
X244055D02*
D03*
X350433Y503937D02*
D03*
X320433D02*
D03*
Y484252D02*
D03*
X350433D02*
D03*
Y429134D02*
D03*
X320433D02*
D03*
Y409449D02*
D03*
X350433D02*
D03*
X42913Y561457D02*
D03*
Y531457D02*
D03*
X125158Y401575D02*
D03*
X155158D02*
D03*
X320433Y137795D02*
D03*
X350433D02*
D03*
Y157480D02*
D03*
X320433D02*
D03*
Y212598D02*
D03*
X350433D02*
D03*
Y232283D02*
D03*
X320433D02*
D03*
X59488Y401575D02*
D03*
X29488D02*
D03*
D24*
X336221Y125591D02*
D03*
X351850Y331250D02*
D03*
X292250Y311250D02*
D03*
X76850Y395050D02*
D03*
X225850Y268050D02*
D03*
M02*
