G04 Layer_Color=16711935*
%FSLAX25Y25*%
%MOIN*%
G70*
G01*
G75*
%ADD32C,0.06700*%
%ADD33R,0.06700X0.06700*%
%ADD34C,0.07400*%
%ADD35R,0.07400X0.07400*%
%ADD36C,0.05524*%
%ADD37R,0.05524X0.05524*%
%ADD38R,0.05524X0.05524*%
%ADD39C,0.06706*%
%ADD40R,0.06706X0.06706*%
%ADD41R,0.06706X0.06706*%
%ADD42C,0.08123*%
%ADD43R,0.08123X0.08123*%
%ADD44C,0.06312*%
%ADD45C,0.03162*%
D32*
X320394Y88110D02*
D03*
Y98110D02*
D03*
Y108110D02*
D03*
Y118110D02*
D03*
X350394D02*
D03*
Y108110D02*
D03*
Y98110D02*
D03*
D33*
Y88110D02*
D03*
D34*
X216535Y347165D02*
D03*
Y337165D02*
D03*
Y327165D02*
D03*
Y317165D02*
D03*
Y307165D02*
D03*
Y297165D02*
D03*
Y287165D02*
D03*
X186535D02*
D03*
Y297165D02*
D03*
Y307165D02*
D03*
Y317165D02*
D03*
Y327165D02*
D03*
Y337165D02*
D03*
D35*
Y347165D02*
D03*
D36*
X140157Y567677D02*
D03*
X259055Y597677D02*
D03*
Y471693D02*
D03*
X320433Y456693D02*
D03*
X350433D02*
D03*
X320433Y381890D02*
D03*
X350433D02*
D03*
X125157Y456693D02*
D03*
X350433Y185039D02*
D03*
X320433D02*
D03*
X350433Y259842D02*
D03*
X320433D02*
D03*
X29488Y456693D02*
D03*
D37*
X140157Y597677D02*
D03*
X259055Y567677D02*
D03*
Y441693D02*
D03*
D38*
X155157Y456693D02*
D03*
X59488D02*
D03*
D39*
X354331Y324961D02*
D03*
X39370Y314803D02*
D03*
X209606Y531496D02*
D03*
X114016Y39370D02*
D03*
X59055Y214173D02*
D03*
Y144173D02*
D03*
Y154173D02*
D03*
Y164173D02*
D03*
Y174173D02*
D03*
Y184173D02*
D03*
Y194173D02*
D03*
Y204173D02*
D03*
X71024Y590551D02*
D03*
X182520Y39370D02*
D03*
X172520D02*
D03*
X162520D02*
D03*
X152520D02*
D03*
X269528D02*
D03*
X222126D02*
D03*
X232126D02*
D03*
X325433Y531496D02*
D03*
X335433D02*
D03*
X71024Y555118D02*
D03*
X71024Y531496D02*
D03*
X259843Y230709D02*
D03*
X269843D02*
D03*
X259843Y220709D02*
D03*
X269843D02*
D03*
X259843Y210709D02*
D03*
X269843D02*
D03*
X259843Y200709D02*
D03*
X269843D02*
D03*
X259843Y190709D02*
D03*
X269843D02*
D03*
X259843Y180709D02*
D03*
X269843D02*
D03*
X259843Y170709D02*
D03*
X269843D02*
D03*
X259843Y160709D02*
D03*
X269843D02*
D03*
X259843Y150709D02*
D03*
X269843D02*
D03*
X259843Y140709D02*
D03*
X152520Y248661D02*
D03*
Y258661D02*
D03*
X162520Y248661D02*
D03*
Y258661D02*
D03*
X172520Y248661D02*
D03*
Y258661D02*
D03*
X182520Y248661D02*
D03*
Y258661D02*
D03*
X192520Y248661D02*
D03*
Y258661D02*
D03*
X202520Y248661D02*
D03*
Y258661D02*
D03*
X212520Y248661D02*
D03*
Y258661D02*
D03*
X222520Y248661D02*
D03*
Y258661D02*
D03*
X232520Y248661D02*
D03*
Y258661D02*
D03*
X242520Y248661D02*
D03*
X134252Y140079D02*
D03*
X124252D02*
D03*
X134252Y150079D02*
D03*
X124252D02*
D03*
X134252Y160079D02*
D03*
X124252D02*
D03*
X134252Y170079D02*
D03*
X124252D02*
D03*
X134252Y180079D02*
D03*
X124252D02*
D03*
X134252Y190079D02*
D03*
X124252D02*
D03*
X134252Y200079D02*
D03*
X124252D02*
D03*
X134252Y210079D02*
D03*
X124252D02*
D03*
X134252Y220079D02*
D03*
X124252D02*
D03*
X134252Y230079D02*
D03*
X242520Y123386D02*
D03*
Y113386D02*
D03*
X232520Y123386D02*
D03*
Y113386D02*
D03*
X222520Y123386D02*
D03*
Y113386D02*
D03*
X212520Y123386D02*
D03*
Y113386D02*
D03*
X202520Y123386D02*
D03*
Y113386D02*
D03*
X192520Y123386D02*
D03*
Y113386D02*
D03*
X182520Y123386D02*
D03*
Y113386D02*
D03*
X172520Y123386D02*
D03*
Y113386D02*
D03*
X162520Y123386D02*
D03*
Y113386D02*
D03*
X152520Y123386D02*
D03*
D40*
X354331Y314961D02*
D03*
X39370Y324803D02*
D03*
X59055Y224173D02*
D03*
X269843Y140709D02*
D03*
X124252Y230079D02*
D03*
D41*
X199606Y531496D02*
D03*
X124016Y39370D02*
D03*
X61024Y590551D02*
D03*
X192520Y39370D02*
D03*
X279528D02*
D03*
X242126D02*
D03*
X345433Y531496D02*
D03*
X61024Y555118D02*
D03*
X61024Y531496D02*
D03*
X242520Y258661D02*
D03*
X152520Y113386D02*
D03*
D42*
X199606Y577638D02*
D03*
Y587638D02*
D03*
D43*
Y597638D02*
D03*
D44*
X59055Y305079D02*
D03*
Y335079D02*
D03*
X220906Y503937D02*
D03*
X190906D02*
D03*
X135079Y59055D02*
D03*
X105079D02*
D03*
X218071D02*
D03*
X248071D02*
D03*
X244055Y401575D02*
D03*
X274055D02*
D03*
Y381890D02*
D03*
X244055D02*
D03*
X350433Y503937D02*
D03*
X320433D02*
D03*
Y484252D02*
D03*
X350433D02*
D03*
Y429134D02*
D03*
X320433D02*
D03*
Y409449D02*
D03*
X350433D02*
D03*
X42913Y561457D02*
D03*
Y531457D02*
D03*
X125158Y401575D02*
D03*
X155158D02*
D03*
X320433Y137795D02*
D03*
X350433D02*
D03*
Y157480D02*
D03*
X320433D02*
D03*
Y212598D02*
D03*
X350433D02*
D03*
Y232283D02*
D03*
X320433D02*
D03*
X59488Y401575D02*
D03*
X29488D02*
D03*
D45*
X336221Y125591D02*
D03*
X351850Y331250D02*
D03*
X292250Y311250D02*
D03*
X76850Y395050D02*
D03*
X225850Y268050D02*
D03*
M02*
