M48
;Layer_Color=9474304
;FILE_FORMAT=2:5
INCH,LZ
;TYPE=PLATED
T1F00S00C0.01181
T2F00S00C0.02756
T3F00S00C0.03346
T4F00S00C0.03543
T5F00S00C0.03900
T6F00S00C0.04400
T7F00S00C0.04882
%
T01
X022585Y026805
X0336221Y0125591
X035185Y033125
X029225Y031125
X007685Y039505
T02
X0320433Y0185039
X0350433
Y0259842
X0320433
Y038189
X0350433
X0059488Y0456693
X0029488
X0125157
X0155157
X0259055Y0471693
Y0441693
Y0567677
X0140157Y0567677
X0320433Y0456693
X0350433
X0259055Y0597677
X0140157Y0597677
T03
X0135079Y0059055
X0218071
X0248071
X0105079
X0320433Y0137795
Y015748
X0350433
Y0137795
Y0212598
Y0232283
X0320433
Y0212598
X0320433Y0409449
X0350433
X0274055Y0401575
Y038189
X0244055
Y0401575
X0155158
X0125158
X0059488
X0029488
X0059055Y0335079
Y0305079
X0042913Y0531457
Y0561457
X0190906Y0503937
X0220906
X0320433
Y0484252
X0350433
Y0503937
Y0429134
X0320433
T04
X0279528Y003937
X0269528
X0242126
X0232126
X0222126
X019252
X018252
X017252
X016252
X015252
X0124016
X015252Y0113386
X016252
X017252
X018252
X019252
X020252
X021252
X022252
X023252
X024252
X0114016Y003937
X0059055Y0144173
Y0154173
Y0164173
Y0174173
Y0184173
Y0194173
Y0204173
Y0214173
Y0224173
X0124252Y0220079
Y0210079
Y0200079
Y0190079
Y0180079
Y0170079
Y0160079
Y0150079
Y0140079
X0134252
Y0150079
Y0160079
Y0170079
Y0180079
Y0190079
Y0200079
Y0210079
Y0220079
Y0230079
X0124252
X015252Y0248661
Y0258661
X016252
Y0248661
X017252
Y0258661
X018252
Y0248661
X019252
Y0258661
X020252
Y0248661
X021252
Y0258661
X022252
Y0248661
X023252
Y0258661
X024252
Y0248661
X0259843Y0230709
X0269843
Y0220709
X0259843
Y0210709
X0269843
Y0200709
X0259843
Y0190709
X0269843
Y0180709
X0259843
Y0170709
X0269843
Y0160709
X0259843
Y0150709
X0269843
Y0140709
X0259843
X024252Y0123386
X023252
X022252
X021252
X020252
X019252
X018252
X017252
X016252
X015252
X0354331Y0314961
Y0324961
X003937Y0324803
Y0314803
X0061024Y0531496
X0071024
X0071024Y0555118
X0061024
X0199606Y0531496
X0209606
X0325433
X0335433
X0345433
X0071024Y0590551
X0061024
T05
X0320394Y008811
Y009811
Y010811
X0350394
Y009811
Y008811
Y011811
X0320394
T06
X0186535Y0287165
Y0297165
Y0307165
Y0317165
Y0327165
Y0337165
Y0347165
X0216535
Y0337165
Y0327165
Y0317165
Y0307165
Y0297165
Y0287165
T07
X0199606Y0577638
Y0587638
Y0597638
M30
